<mxfile host="65bd71144e">
    <diagram id="MFKjRBnjjVtyZD9jvgVh" name="Page-1">
        <mxGraphModel dx="340" dy="311" grid="1" gridSize="10" guides="1" tooltips="1" connect="1" arrows="1" fold="1" page="1" pageScale="1" pageWidth="850" pageHeight="1100" math="0" shadow="0">
            <root>
                <mxCell id="0"/>
                <mxCell id="1" parent="0"/>
                <mxCell id="2" value="" style="ellipse;whiteSpace=wrap;html=1;fillColor=none;strokeWidth=15;" vertex="1" parent="1">
                    <mxGeometry x="360" y="130" width="135" height="170" as="geometry"/>
                </mxCell>
                <mxCell id="9" value="" style="group;strokeWidth=15;rotation=180;direction=east;" vertex="1" connectable="0" parent="1">
                    <mxGeometry x="367.5" y="170" width="120" height="90" as="geometry"/>
                </mxCell>
                <mxCell id="6" value="" style="endArrow=none;html=1;strokeWidth=15;" edge="1" parent="9">
                    <mxGeometry width="50" height="50" relative="1" as="geometry">
                        <mxPoint x="120" as="sourcePoint"/>
                        <mxPoint y="90" as="targetPoint"/>
                    </mxGeometry>
                </mxCell>
                <mxCell id="7" value="" style="endArrow=none;html=1;strokeWidth=15;" edge="1" parent="9">
                    <mxGeometry width="50" height="50" relative="1" as="geometry">
                        <mxPoint x="120" as="sourcePoint"/>
                        <mxPoint as="targetPoint"/>
                    </mxGeometry>
                </mxCell>
                <mxCell id="8" value="" style="endArrow=none;html=1;strokeWidth=15;" edge="1" parent="9">
                    <mxGeometry width="50" height="50" relative="1" as="geometry">
                        <mxPoint x="120" y="90" as="sourcePoint"/>
                        <mxPoint y="90" as="targetPoint"/>
                    </mxGeometry>
                </mxCell>
            </root>
        </mxGraphModel>
    </diagram>
</mxfile>